<?xml version="1.0" standalone="no"?>
<!DOCTYPE svg PUBLIC "-//W3C//DTD SVG 20010904//EN"
 "http://www.w3.org/TR/2001/REC-SVG-20010904/DTD/svg10.dtd">
<svg version="1.0" xmlns="http://www.w3.org/2000/svg"
 width="1280.000000pt" height="861.000000pt" viewBox="0 0 1280.000000 861.000000"
 preserveAspectRatio="xMidYMid meet">
<metadata>
Created by potrace 1.15, written by Peter Selinger 2001-2017
</metadata>
<g transform="translate(0.000000,861.000000) scale(0.100000,-0.100000)"
fill="#000000" stroke="none">
<path d="M5899 8346 c-2 -2 -170 -9 -374 -15 -203 -6 -419 -16 -480 -22 -60
-5 -171 -14 -245 -19 -216 -15 -317 -27 -530 -61 -400 -64 -673 -147 -844
-257 -65 -42 -158 -112 -200 -151 -90 -84 -204 -259 -256 -391 -36 -91 -82
-276 -94 -380 -4 -30 -11 -77 -16 -105 -69 -371 -56 -1444 25 -2135 17 -149
59 -444 80 -570 9 -52 22 -133 30 -180 84 -503 211 -822 415 -1034 104 -108
169 -157 320 -237 132 -70 414 -153 605 -178 44 -6 125 -18 180 -26 55 -9 168
-22 250 -30 140 -14 220 -19 645 -45 410 -25 1661 -21 2065 6 39 3 138 9 220
14 546 36 941 93 1176 170 426 141 674 384 819 806 123 358 208 850 265 1539
8 99 17 196 19 216 3 19 7 127 11 240 4 112 9 215 11 228 14 96 14 549 0 835
-9 175 -18 322 -20 325 -2 3 -9 49 -15 101 -14 109 -57 290 -96 400 -103 286
-279 484 -560 628 -217 111 -406 160 -895 232 -79 12 -240 29 -335 36 -38 3
-115 9 -170 14 -246 23 -1061 49 -1521 50 -264 0 -483 -2 -485 -4z m1316 -387
c378 -18 713 -44 724 -54 2 -3 -3 -35 -13 -73 -9 -37 -18 -74 -20 -82 -2 -8
-9 -35 -16 -60 -7 -25 -13 -52 -15 -60 -2 -8 -15 -61 -29 -116 -15 -56 -29
-110 -31 -120 -2 -11 -9 -35 -14 -54 -5 -19 -30 -114 -55 -210 -25 -96 -52
-202 -61 -235 -9 -33 -27 -101 -41 -152 -26 -100 -61 -232 -134 -508 -102
-383 -190 -650 -279 -848 -97 -216 -249 -360 -431 -408 -103 -28 -345 -41
-546 -29 -145 8 -185 14 -256 38 -102 34 -179 84 -253 164 -72 77 -93 111
-155 249 -78 173 -96 221 -145 389 -28 98 -66 228 -81 280 -8 30 -24 84 -34
120 -20 66 -42 145 -65 235 -7 28 -27 100 -45 160 -17 61 -37 135 -45 165 -7
30 -35 136 -60 235 -26 99 -50 196 -55 215 -4 19 -29 116 -55 215 -25 99 -48
187 -50 195 -2 8 -20 78 -39 155 -20 77 -36 141 -36 141 0 1 44 4 98 8 53 4
133 11 177 16 374 44 1447 59 2060 29z m-2993 -329 c4 -102 12 -347 18 -545 6
-198 17 -470 25 -605 8 -135 19 -346 24 -470 6 -124 15 -286 21 -360 5 -74 12
-182 15 -240 4 -58 8 -124 11 -147 2 -23 9 -106 15 -185 13 -171 14 -179 29
-338 7 -69 14 -147 16 -175 2 -27 9 -106 15 -175 6 -69 13 -143 15 -165 2 -22
8 -89 14 -150 6 -60 15 -162 21 -225 5 -63 14 -137 19 -165 5 -27 11 -77 15
-110 7 -74 32 -282 51 -433 8 -62 14 -127 14 -143 0 -30 -1 -31 -42 -25 -44 6
-187 36 -268 56 -169 41 -313 122 -442 251 -80 80 -103 110 -140 185 -61 122
-121 297 -149 434 -28 138 -40 201 -54 285 -8 50 -21 135 -30 190 -16 97 -36
258 -55 440 -13 127 -37 588 -52 995 -10 300 -9 390 5 695 26 531 65 719 191
926 51 83 77 113 146 170 98 79 286 161 475 207 73 18 69 27 77 -178z m4648
122 c149 -51 251 -113 335 -203 177 -188 238 -389 276 -904 13 -180 13 -1031
0 -1240 -64 -1000 -154 -1575 -294 -1875 -88 -190 -205 -317 -377 -413 -54
-30 -231 -90 -315 -106 -33 -7 -76 -16 -95 -21 -19 -5 -58 -12 -87 -16 l-52
-6 5 43 c2 24 9 85 15 134 5 50 12 113 15 140 3 28 10 86 15 130 6 44 16 139
24 210 8 72 19 173 25 225 6 52 12 115 14 140 2 25 9 95 15 155 7 61 13 133
15 160 3 41 16 182 31 330 4 43 27 322 30 370 9 140 17 233 25 325 9 90 23
314 36 575 2 39 8 149 14 245 6 96 15 294 20 440 5 146 14 364 20 485 5 121
12 333 16 470 3 138 10 255 15 261 11 14 141 -13 259 -54z m-2258 -3618 c144
-13 185 -20 250 -45 137 -53 214 -130 277 -276 58 -134 180 -504 263 -793 19
-68 37 -112 51 -124 20 -18 20 -19 2 -11 -11 5 -38 9 -60 8 -301 -10 -1498
-13 -1719 -5 -154 6 -285 8 -290 4 -15 -11 -66 -32 -66 -28 0 2 16 13 35 24
28 17 37 31 50 79 9 32 20 69 25 83 5 14 18 59 30 100 85 291 188 593 246 716
55 117 158 200 299 238 160 44 351 54 607 30z"/>
<path d="M3595 1559 c-414 -43 -711 -201 -832 -444 -60 -119 -68 -157 -67
-320 0 -127 3 -160 21 -213 64 -184 172 -308 356 -405 197 -105 465 -157 803
-157 636 0 1023 184 1155 550 21 58 24 82 24 220 0 170 -10 218 -69 335 -46
93 -188 228 -301 287 -134 70 -265 110 -455 139 -84 13 -533 19 -635 8z m490
-294 c83 -23 113 -38 163 -81 86 -74 128 -174 138 -334 18 -266 -69 -441 -253
-510 -112 -42 -388 -42 -505 -1 -124 43 -208 134 -243 264 -26 96 -18 349 14
430 56 143 180 231 356 250 80 10 270 -1 330 -18z"/>
<path d="M0 1420 l0 -99 32 -5 c18 -2 68 -9 111 -15 95 -13 115 -23 133 -66
21 -51 21 -830 -1 -880 -18 -45 -45 -56 -170 -69 l-100 -11 -3 -102 -3 -103
586 0 586 0 -3 102 -3 103 -107 11 c-115 12 -152 27 -168 70 -6 14 -10 84 -10
155 l0 129 440 0 440 0 0 -125 c0 -138 -12 -184 -52 -206 -12 -7 -70 -17 -128
-23 l-105 -11 -3 -103 -3 -102 586 0 586 0 -3 102 -3 103 -105 11 c-114 11
-139 20 -164 59 -15 23 -16 68 -14 460 l3 435 25 25 c21 20 41 27 110 36 47 5
100 12 118 15 l32 5 0 99 0 100 -585 0 -585 0 0 -100 0 -99 33 -5 c17 -2 68
-9 112 -15 87 -12 121 -29 135 -67 12 -30 14 -284 3 -284 -22 0 -803 0 -835 0
l-38 0 0 140 c0 138 0 140 27 170 25 27 38 31 113 41 47 6 100 12 118 15 l32
5 0 99 0 100 -585 0 -585 0 0 -100z"/>
<path d="M5120 1420 l0 -99 33 -5 c17 -2 67 -9 110 -15 43 -6 87 -16 98 -22
46 -24 49 -52 49 -485 0 -517 10 -489 -180 -508 l-105 -11 -3 -103 -3 -102
466 0 466 0 -3 102 -3 102 -106 12 c-96 11 -157 31 -160 53 0 3 -3 15 -7 26
-9 30 -14 755 -5 755 5 -1 20 -17 34 -38 15 -20 93 -125 174 -232 81 -107 202
-267 269 -355 66 -88 123 -162 127 -165 3 -3 43 -56 89 -119 59 -80 93 -118
116 -127 26 -11 114 -14 419 -14 l385 0 0 569 c0 338 4 580 10 595 14 38 48
55 135 67 44 6 95 13 113 15 l32 5 0 99 0 100 -470 0 -470 0 0 -100 0 -99 33
-5 c17 -3 59 -8 92 -11 100 -10 133 -22 152 -58 16 -29 18 -72 21 -404 2 -205
-1 -373 -5 -373 -4 0 -27 26 -49 58 -23 31 -126 167 -228 302 -103 135 -258
340 -346 456 -91 121 -170 215 -185 222 -19 9 -170 12 -560 12 l-535 0 0 -100z"/>
<path d="M7770 1420 l0 -99 33 -5 c17 -2 67 -9 111 -14 131 -17 121 25 124
-492 2 -298 -1 -447 -8 -460 -21 -38 -59 -53 -168 -64 l-107 -11 0 -100 0
-100 830 0 c820 0 831 0 932 22 282 61 469 187 564 377 56 114 69 182 65 351
-3 150 -11 184 -68 301 -74 154 -239 278 -453 342 -167 50 -209 52 -1060 52
l-795 0 0 -100z m1498 -205 c65 -23 133 -81 161 -138 53 -109 66 -317 31 -467
-37 -153 -97 -213 -247 -245 -51 -10 -133 -14 -328 -12 l-260 2 -3 443 -2 444
297 -4 c256 -4 306 -7 351 -23z"/>
<path d="M10510 1420 l0 -99 33 -5 c17 -3 82 -11 142 -18 90 -10 114 -16 133
-35 12 -12 22 -31 22 -41 0 -10 -64 -122 -141 -248 -78 -126 -198 -322 -268
-436 -145 -238 -148 -241 -286 -253 -124 -10 -115 -1 -115 -116 l0 -99 465 0
465 0 0 95 c0 52 0 98 0 103 0 4 -38 10 -85 14 -93 8 -140 26 -150 58 -6 19 1
35 61 137 l19 33 445 0 445 -1 36 -57 c51 -79 54 -95 26 -127 -20 -24 -34 -29
-112 -37 -150 -16 -135 -3 -135 -118 l0 -100 635 0 635 0 0 99 c0 115 9 106
-120 116 -99 8 -155 31 -188 78 -13 17 -101 150 -195 295 -508 776 -541 825
-571 843 -29 18 -62 19 -613 19 l-583 0 0 -100z m760 -261 c38 -63 39 -64 143
-222 53 -81 97 -150 97 -152 0 -3 -119 -5 -265 -5 -146 0 -265 3 -265 8 1 4
21 39 45 77 24 39 80 130 125 203 45 72 84 132 88 132 4 0 18 -19 32 -41z"/>
</g>
</svg>
