<?xml version="1.0" standalone="no"?>
<!DOCTYPE svg PUBLIC "-//W3C//DTD SVG 20010904//EN"
 "http://www.w3.org/TR/2001/REC-SVG-20010904/DTD/svg10.dtd">
<svg version="1.0" xmlns="http://www.w3.org/2000/svg"
 width="1215.000000pt" height="1280.000000pt" viewBox="0 0 1215.000000 1280.000000"
 preserveAspectRatio="xMidYMid meet">
<metadata>
Created by potrace 1.15, written by Peter Selinger 2001-2017
</metadata>
<g transform="translate(0.000000,1280.000000) scale(0.100000,-0.100000)"
fill="#000000" stroke="none">
<path d="M6397 12793 c-3 -5 -8 -30 -12 -58 -19 -133 -100 -326 -199 -474 -83
-125 -185 -243 -363 -418 l-144 -143 -87 58 c-137 92 -404 261 -552 349 -303
180 -449 245 -546 245 -267 -2 -602 -316 -896 -842 -67 -120 -187 -364 -228
-462 l-24 -58 -30 24 c-396 299 -602 425 -709 434 -112 9 -324 -51 -452 -129
-271 -164 -528 -458 -782 -894 -155 -266 -303 -569 -554 -1128 -189 -420 -287
-626 -363 -767 -57 -105 -87 -154 -168 -273 -3 -6 -25 6 -50 25 -57 47 -80 58
-120 58 -51 0 -95 -32 -109 -79 -25 -83 -34 -75 521 -519 512 -411 5004 -4007
8012 -6415 1286 -1030 1654 -1319 1681 -1324 97 -15 173 98 119 178 -9 15
-898 732 -1974 1594 l-1957 1567 64 74 c198 227 418 568 950 1473 403 687 595
998 751 1217 l43 61 378 -252 c242 -161 398 -258 432 -270 192 -64 365 73 544
431 61 122 174 403 261 648 74 208 207 570 212 575 2 2 56 -48 121 -111 449
-434 427 -417 549 -418 62 0 81 5 140 35 237 119 496 472 808 1105 187 379
500 1131 479 1151 -5 4 -75 35 -158 70 -691 292 -1373 716 -2758 1718 -974
704 -1318 948 -1657 1181 -107 74 -197 137 -200 140 -14 16 -954 630 -964 630
-3 0 -7 -3 -9 -7z m33 -27 c0 -3 -4 -8 -10 -11 -5 -3 -10 -1 -10 4 0 6 5 11
10 11 6 0 10 -2 10 -4z m-1813 -461 c123 -47 426 -217 701 -395 l104 -67 -51
-6 c-179 -21 -349 -211 -569 -637 -42 -80 -77 -147 -78 -149 -8 -10 -475 440
-688 663 l-168 176 66 79 c141 168 294 287 433 337 91 32 163 31 250 -1z
m2897 -262 c240 -164 843 -590 871 -615 6 -6 4 -13 -7 -19 -10 -6 -18 -16 -18
-24 0 -7 -15 -67 -34 -132 -40 -138 -109 -304 -174 -418 -54 -95 -180 -285
-188 -285 -4 0 -164 118 -358 263 -193 145 -420 312 -503 372 -84 60 -153 112
-153 116 0 4 34 44 76 90 151 165 237 329 293 556 17 65 32 135 36 156 3 20 8
37 11 37 4 0 70 -44 148 -97z m-1412 -217 c206 -125 403 -252 626 -405 l182
-125 -49 -50 c-40 -42 -104 -122 -173 -219 -12 -16 -32 -4 -228 135 -118 83
-336 235 -485 336 -148 102 -271 186 -273 187 -3 3 232 235 239 235 3 0 76
-42 161 -94z m-2182 -23 l65 -67 -63 53 c-62 53 -63 53 -84 35 -49 -44 -183
-265 -317 -524 -44 -85 -81 -152 -81 -147 0 12 118 245 188 367 52 93 218 350
226 350 1 0 31 -30 66 -67z m1570 -4 l25 -20 -32 16 c-18 8 -33 18 -33 20 0
10 16 4 40 -16z m-210 -24 c-79 -43 -170 -132 -247 -240 -65 -92 -84 -114 -57
-67 74 130 220 283 309 323 67 31 64 21 -5 -16z m790 -371 c0 -3 -20 9 -45 26
-25 17 -45 33 -45 36 0 3 20 -9 45 -26 25 -17 45 -33 45 -36z m-3420 16 c10
-7 -1 -8 -35 -4 -27 4 -52 8 -54 10 -10 9 75 3 89 -6z m2289 -27 c-12 -21 -27
-42 -32 -48 -11 -11 9 29 31 63 24 37 25 25 1 -15z m-2239 7 c8 -5 11 -10 5
-10 -5 0 -17 5 -25 10 -8 5 -10 10 -5 10 6 0 17 -5 25 -10z m120 -66 c0 -2 -9
0 -20 6 -11 6 -20 13 -20 16 0 2 9 0 20 -6 11 -6 20 -13 20 -16z m95 -59 l20
-16 -20 10 c-11 5 -29 17 -40 26 l-20 16 20 -10 c11 -5 29 -17 40 -26z m1945
-25 c-11 -22 -23 -40 -25 -40 -3 0 4 18 15 40 11 22 23 40 25 40 3 0 -4 -18
-15 -40z m-1800 -76 c0 -2 -27 14 -60 36 -33 22 -60 43 -60 46 0 2 27 -14 60
-36 33 -22 60 -43 60 -46z m3404 -39 c23 -17 21 -20 -18 -29 -26 -6 -28 -5
-17 8 7 8 10 20 6 26 -9 14 7 12 29 -5z m-4604 -90 c-41 -41 -77 -75 -79 -75
-3 0 28 34 69 75 41 41 77 75 79 75 3 0 -28 -34 -69 -75z m2850 -22 c0 -8 -9
0 -50 45 l-45 47 48 -45 c26 -24 47 -45 47 -47z m1903 4 c48 -34 239 -171 425
-305 185 -134 370 -266 409 -295 40 -29 73 -55 73 -59 0 -5 -10 -8 -22 -8 -69
0 -186 -105 -290 -262 -63 -93 -173 -297 -304 -559 l-87 -176 -171 125 c-178
130 -605 452 -737 555 l-76 60 64 141 c113 248 250 518 310 611 99 152 200
235 283 235 27 0 56 -15 123 -63z m-1752 -139 c214 -193 486 -423 716 -606
122 -97 222 -183 222 -191 1 -18 -172 -355 -230 -447 -52 -84 -169 -244 -192
-263 -26 -21 -21 -32 35 -84 61 -56 -34 23 -665 552 -445 373 -457 384 -443
405 108 149 216 336 342 589 43 86 82 157 85 157 3 0 62 -50 130 -112z m-3144
-6 c-88 -108 -126 -166 -133 -200 -5 -26 0 -34 55 -77 34 -26 61 -50 61 -52 0
-5 -78 50 -121 87 l-33 27 64 89 c69 95 157 204 166 204 2 0 -24 -35 -59 -78z
m1693 27 c0 -4 -7 -10 -16 -13 -9 -3 -12 -2 -8 5 3 6 -5 22 -17 36 l-24 26 33
-23 c17 -13 32 -27 32 -31z m229 -176 c108 -86 319 -258 470 -382 150 -124
285 -235 298 -245 l25 -19 -67 -39 c-322 -186 -621 -461 -863 -791 -56 -76
-66 -86 -80 -75 -9 7 -124 103 -257 213 -176 147 -627 514 -714 581 -2 2 42
63 97 136 181 241 361 423 581 588 87 65 286 190 304 190 5 0 98 -71 206 -157z
m5949 -171 c152 -109 350 -249 440 -311 89 -62 162 -118 162 -126 0 -39 -77
-387 -115 -520 -38 -132 -66 -213 -173 -492 -9 -24 -19 -43 -22 -43 -5 0 -399
299 -747 569 l-212 163 21 42 c11 22 46 86 78 141 131 228 210 430 261 668 13
59 25 107 27 107 1 0 128 -89 280 -198z m-5078 61 c-68 -121 -152 -260 -176
-289 -13 -16 1 12 32 61 30 50 80 134 111 188 30 53 57 97 60 97 3 0 -10 -26
-27 -57z m-2717 -171 c193 -144 595 -451 626 -478 2 -2 -3 -12 -11 -21 -36
-41 -206 -338 -301 -526 -88 -173 -233 -481 -321 -679 l-25 -58 -198 141
c-109 78 -313 218 -453 311 -140 93 -256 171 -258 172 -6 7 258 567 363 772
135 262 304 554 322 554 2 0 118 -85 256 -188z m6155 63 c-3 -3 -9 2 -12 12
-6 14 -5 15 5 6 7 -7 10 -15 7 -18z m86 -53 c33 -27 240 -187 459 -356 218
-169 397 -310 397 -314 0 -4 -9 -31 -21 -61 -11 -30 -32 -102 -46 -160 -14
-58 -26 -107 -28 -109 -1 -2 -162 115 -356 260 -195 145 -420 313 -501 372
-82 60 -148 115 -148 121 0 16 169 295 179 295 2 0 31 -22 65 -48z m-398 -173
c4 -8 1 -8 -14 0 -12 6 -24 16 -28 22 -4 8 -1 8 14 0 12 -6 24 -16 28 -22z
m-5193 -284 c-3 -9 -8 -14 -10 -11 -3 3 -2 9 2 15 9 16 15 13 8 -4z m-123
-245 c-6 -11 -13 -20 -16 -20 -2 0 0 9 6 20 6 11 13 20 16 20 2 0 0 -9 -6 -20z
m411 -37 c13 -16 12 -17 -3 -4 -10 7 -18 15 -18 17 0 8 8 3 21 -13z m-446 -23
c-9 -16 -18 -30 -21 -30 -2 0 2 14 11 30 9 17 18 30 21 30 2 0 -2 -13 -11 -30z
m607 -109 c7 -8 -20 11 -59 43 -40 32 -73 60 -73 63 0 6 118 -87 132 -106z
m-760 -180 c-70 -137 -128 -248 -130 -246 -4 3 128 269 200 403 93 172 57 93
-70 -157z m803 149 c10 -11 16 -20 13 -20 -3 0 -13 9 -23 20 -10 11 -16 20
-13 20 3 0 13 -9 23 -20z m5690 0 c3 -5 1 -10 -4 -10 -6 0 -11 5 -11 10 0 6 2
10 4 10 3 0 8 -4 11 -10z m58 -47 c7 -5 209 -157 450 -338 l438 -329 -50 -17
c-183 -59 -364 -355 -555 -909 -26 -74 -49 -141 -51 -148 -3 -8 -54 29 -137
100 -224 191 -436 361 -713 571 -71 55 -129 104 -127 109 1 5 34 80 73 166
222 491 376 729 512 793 43 20 133 21 160 2z m-4983 -53 c-29 -33 -54 -60 -57
-60 -3 0 18 27 47 60 29 33 54 60 57 60 3 0 -18 -27 -47 -60z m7633 -34 c262
-143 574 -293 730 -351 27 -10 51 -24 54 -31 5 -14 -172 -466 -281 -712 -110
-251 -230 -496 -234 -482 -3 7 -84 64 -181 127 -97 64 -284 190 -416 280
l-240 165 66 131 c84 164 154 336 213 514 54 167 119 421 112 439 -3 8 -3 14
0 14 3 0 83 -42 177 -94z m-4533 -83 c0 -7 -58 36 -66 49 -4 7 9 -1 29 -16 20
-16 37 -30 37 -33z m-3160 44 c0 -2 -10 -12 -22 -23 l-23 -19 19 23 c18 21 26
27 26 19z m3214 -43 c3 -8 2 -12 -4 -9 -6 3 -10 10 -10 16 0 14 7 11 14 -7z
m-3254 -7 c0 -2 -10 -12 -22 -23 l-23 -19 19 23 c18 21 26 27 26 19z m1751
-24 c13 -16 12 -17 -3 -4 -10 7 -18 15 -18 17 0 8 8 3 21 -13z m1822 -236
c742 -541 728 -530 722 -555 -10 -41 -190 -404 -264 -531 -78 -136 -137 -222
-198 -290 l-39 -44 -154 123 c-194 154 -412 332 -692 563 l-218 179 51 56 c99
109 238 337 380 624 35 70 67 124 71 122 4 -3 158 -114 341 -247z m-6309 205
c2 -4 -4 -8 -14 -8 -10 0 -16 4 -14 8 3 4 9 8 14 8 5 0 11 -4 14 -8z m2696 4
c0 -2 -8 -10 -17 -17 -16 -13 -17 -12 -4 4 13 16 21 21 21 13z m1887 -52 c2 0
-9 -11 -24 -25 -26 -22 -26 -22 -9 -1 19 22 19 23 -10 55 l-29 32 35 -30 c19
-16 36 -30 37 -31z m-4626 3 c-10 -9 -11 -8 -5 6 3 10 9 15 12 12 3 -3 0 -11
-7 -18z m2684 -24 c-14 -21 -25 -44 -25 -52 0 -9 17 -33 38 -55 l37 -39 -47
38 c-27 22 -48 43 -48 48 0 10 59 97 66 97 3 0 -7 -17 -21 -37z m2120 -129
c83 -70 310 -259 505 -422 195 -162 361 -300 368 -306 9 -9 -4 -23 -60 -62
-309 -215 -573 -508 -799 -885 l-70 -118 -447 396 c-246 218 -475 422 -509
452 l-61 54 36 56 c183 280 428 576 622 751 121 109 243 210 255 210 6 0 78
-57 160 -126z m-1984 -121 c481 -414 874 -763 874 -778 0 -5 -39 -75 -86 -155
-113 -191 -172 -298 -389 -710 -99 -189 -183 -346 -185 -348 -2 -2 -113 92
-247 210 -258 227 -612 532 -741 637 -62 52 -76 68 -71 84 14 44 250 541 326
687 111 211 305 540 319 540 3 0 93 -75 200 -167z m6325 45 c4 -7 -9 1 -29 16
-20 16 -37 30 -37 33 0 7 58 -36 66 -49z m-99 20 c-3 -8 -6 -5 -6 6 -1 11 2
17 5 13 3 -3 4 -12 1 -19z m333 -225 c135 -98 308 -224 385 -279 83 -60 140
-107 139 -116 -1 -9 -37 -69 -80 -134 -44 -66 -81 -126 -84 -135 -4 -12 -97
55 -375 268 -203 156 -379 289 -390 297 -20 14 -20 14 -2 67 11 30 37 100 59
157 l40 103 31 -24 c18 -13 142 -105 277 -204z m-8840 141 c0 -3 -13 4 -30 16
-16 12 -30 24 -30 26 0 3 14 -4 30 -16 17 -12 30 -24 30 -26z m8111 -175
c-108 -72 -180 -172 -297 -413 -41 -83 -74 -147 -74 -143 0 4 24 61 54 126
109 241 206 375 325 448 62 39 56 25 -8 -18z m-7633 -127 l37 -34 -48 33 c-30
21 -46 38 -42 47 3 7 6 19 6 25 1 7 4 1 6 -13 2 -14 21 -40 41 -58z m129 -134
c217 -163 518 -401 680 -536 l112 -93 -24 -52 c-125 -282 -306 -646 -418 -842
-119 -208 -146 -248 -160 -237 -7 5 -227 181 -490 392 -325 260 -476 387 -473
397 3 7 36 64 74 126 139 227 308 557 447 874 28 62 53 113 57 113 4 0 92 -64
195 -142z m5957 68 c-3 -9 -10 -16 -15 -16 -5 0 -4 9 3 20 14 22 21 20 12 -4z
m21 -66 c3 -5 0 -7 -8 -4 -9 3 -19 -6 -27 -26 -7 -17 -15 -29 -17 -26 -7 6 26
66 37 66 5 0 12 -4 15 -10z m46 -37 c13 -16 12 -17 -3 -4 -10 7 -18 15 -18 17
0 8 8 3 21 -13z m139 -109 c0 -3 -27 16 -60 41 -33 25 -60 48 -60 51 0 3 27
-16 60 -41 33 -25 60 -48 60 -51z m90 -71 c0 -2 -18 10 -40 27 -22 17 -40 34
-40 37 0 2 18 -10 40 -27 22 -17 40 -34 40 -37z m35 -23 c10 -11 16 -20 13
-20 -3 0 -13 9 -23 20 -10 11 -16 20 -13 20 3 0 13 -9 23 -20z m-7929 -16 c-1
-15 32 -47 214 -207 30 -27 -1 -4 -70 51 -192 152 -176 137 -161 156 17 20 19
20 17 0z m6109 7 c-6 -5 -55 -45 -110 -89 -196 -156 -429 -419 -594 -672 -66
-100 -82 -121 -61 -80 26 49 149 227 225 325 149 191 307 348 480 479 55 42
83 59 60 37z m2025 -153 c80 -64 163 -133 185 -153 22 -20 -43 30 -145 111
-102 81 -194 156 -205 168 l-20 20 20 -15 c11 -9 85 -68 165 -131z m631 65
c-12 -20 -14 -14 -5 12 4 9 9 14 11 11 3 -2 0 -13 -6 -23z m-6282 -187 c-29
-63 -44 -85 -52 -77 -7 7 -6 16 5 28 8 10 30 46 49 80 18 34 35 61 36 59 2 -1
-15 -42 -38 -90z m5912 -93 c13 -16 12 -17 -3 -4 -10 7 -18 15 -18 17 0 8 8 3
21 -13z m-4376 -63 c-9 -16 -18 -30 -21 -30 -2 0 2 14 11 30 9 17 18 30 21 30
2 0 -2 -13 -11 -30z m-1500 -20 c10 -11 16 -20 13 -20 -3 0 -13 9 -23 20 -10
11 -16 20 -13 20 3 0 13 -9 23 -20z m145 -127 c0 -3 -27 18 -60 47 -33 29 -60
54 -60 57 0 3 27 -18 60 -47 33 -29 60 -54 60 -57z m1290 27 c-11 -22 -23 -40
-25 -40 -3 0 4 18 15 40 11 22 23 40 25 40 3 0 -4 -18 -15 -40z m4888 -213
c90 -83 276 -265 413 -405 137 -140 252 -252 256 -248 4 3 -7 21 -23 39 l-29
32 35 -30 c19 -16 36 -30 37 -30 4 -1 -144 -398 -197 -530 -145 -358 -292
-580 -429 -647 -70 -35 -160 -32 -236 7 -122 63 -127 111 -34 385 75 224 81
289 35 378 -35 68 -97 136 -155 170 -46 26 -293 181 -300 187 -1 2 8 19 21 37
73 98 147 270 264 607 46 135 87 252 89 260 6 15 9 12 253 -212z m-6138 158
c13 -14 21 -25 18 -25 -2 0 -15 11 -28 25 -13 14 -21 25 -18 25 2 0 15 -11 28
-25z m1190 -55 c-11 -22 -23 -40 -25 -40 -3 0 4 18 15 40 11 22 23 40 25 40 3
0 -4 -18 -15 -40z m-1120 -5 c13 -14 21 -25 18 -25 -2 0 -15 11 -28 25 -13 14
-21 25 -18 25 2 0 15 -11 28 -25z m70 -60 c13 -14 21 -25 18 -25 -2 0 -15 11
-28 25 -13 14 -21 25 -18 25 2 0 15 -11 28 -25z m70 -60 c13 -14 21 -25 18
-25 -2 0 -15 11 -28 25 -13 14 -21 25 -18 25 2 0 15 -11 28 -25z m65 -55 c10
-11 16 -20 13 -20 -3 0 -13 9 -23 20 -10 11 -16 20 -13 20 3 0 13 -9 23 -20z
m2228 -128 c18 -19 25 -32 18 -36 -6 -4 -11 -1 -11 6 0 7 -30 42 -67 76 -51
48 -56 54 -18 24 28 -22 63 -54 78 -70z m2367 -53 c265 -199 454 -334 662
-472 l168 -111 -43 -11 c-178 -46 -448 -367 -827 -983 -41 -67 -79 -122 -83
-122 -39 0 -1101 788 -1094 812 1 4 39 61 84 125 228 327 494 610 789 839 60
46 116 82 124 80 8 -1 107 -72 220 -157z m-69 84 c13 -16 12 -17 -3 -4 -10 7
-18 15 -18 17 0 8 8 3 21 -13z m40 -30 c13 -16 12 -17 -3 -4 -10 7 -18 15 -18
17 0 8 8 3 21 -13z m40 -30 c13 -16 12 -17 -3 -4 -10 7 -18 15 -18 17 0 8 8 3
21 -13z m-2109 -204 c246 -214 563 -482 731 -619 l116 -95 -16 -25 c-80 -121
-247 -411 -428 -745 -120 -220 -221 -404 -225 -408 -9 -10 -420 317 -758 602
-134 113 -250 211 -258 217 -12 10 -3 35 57 155 39 79 132 272 206 429 191
406 336 684 353 678 5 -2 104 -87 222 -189z m2149 174 c13 -16 12 -17 -3 -4
-10 7 -18 15 -18 17 0 8 8 3 21 -13z m40 -30 c13 -16 12 -17 -3 -4 -10 7 -18
15 -18 17 0 8 8 3 21 -13z m700 -64 c-11 -24 -20 -41 -20 -37 -1 12 31 89 35
85 3 -2 -4 -24 -15 -48z m-5070 4 c13 -16 12 -17 -3 -4 -10 7 -18 15 -18 17 0
8 8 3 21 -13z m4450 0 c13 -16 12 -17 -3 -4 -10 7 -18 15 -18 17 0 8 8 3 21
-13z m-4361 -78 c19 -19 32 -35 29 -35 -3 0 -20 16 -39 35 -19 19 -32 35 -29
35 3 0 20 -16 39 -35z m4931 -42 c-11 -21 -20 -35 -21 -31 0 12 33 78 38 74 2
-2 -6 -21 -17 -43z m-4815 -112 c-9 -17 -19 -31 -22 -31 -2 0 0 9 6 19 17 32
12 53 -22 91 -26 28 -24 27 11 -6 l43 -41 -16 -32z m2129 49 c10 -11 16 -20
13 -20 -3 0 -13 9 -23 20 -10 11 -16 20 -13 20 3 0 13 -9 23 -20z m-1895 -171
c71 -69 47 -49 -97 80 -51 46 -91 87 -88 91 3 4 31 -18 62 -49 32 -32 87 -87
123 -122z m1956 119 l29 -33 -32 29 c-31 28 -38 36 -30 36 2 0 16 -15 33 -32z
m-1641 -434 c193 -170 394 -347 448 -393 53 -46 97 -86 97 -88 0 -2 -19 -40
-41 -86 -74 -146 -198 -358 -304 -517 -102 -154 -257 -355 -272 -355 -4 0
-252 195 -550 434 l-542 434 34 46 c136 181 345 505 492 766 53 94 103 180
110 193 14 23 14 23 96 -51 45 -40 240 -213 432 -383z m4136 376 c7 0 24 10
38 23 22 19 23 19 11 2 -41 -58 -37 -57 -96 -18 -65 43 -71 55 -10 19 25 -14
50 -26 57 -26z m-2431 5 c13 -14 21 -25 18 -25 -2 0 -15 11 -28 25 -13 14 -21
25 -18 25 2 0 15 -11 28 -25z m4490 -10 c13 -14 21 -25 18 -25 -2 0 -15 11
-28 25 -13 14 -21 25 -18 25 2 0 15 -11 28 -25z m-6800 -35 c-11 -22 -23 -40
-25 -40 -3 0 4 18 15 40 11 22 23 40 25 40 3 0 -4 -18 -15 -40z m2376 -12 l29
-33 -32 29 c-31 28 -38 36 -30 36 2 0 16 -15 33 -32z m-3926 -37 c-14 -28 -9
-36 88 -121 45 -40 82 -75 82 -77 0 -2 -45 32 -100 77 -55 45 -100 83 -100 86
0 3 8 19 17 35 19 32 31 32 13 0z m3990 -16 c13 -14 21 -25 18 -25 -2 0 -15
11 -28 25 -13 14 -21 25 -18 25 2 0 15 -11 28 -25z m-2480 -5 c-6 -11 -13 -20
-16 -20 -2 0 0 9 6 20 6 11 13 20 16 20 2 0 0 -9 -6 -20z m450 -55 c19 -19 32
-35 29 -35 -3 0 -20 16 -39 35 -19 19 -32 35 -29 35 3 0 20 -16 39 -35z m2180
-72 c0 -3 -27 18 -60 47 -33 29 -60 54 -60 57 0 3 27 -18 60 -47 33 -29 60
-54 60 -57z m-2681 40 c-50 -88 -186 -309 -242 -393 -49 -74 -88 -123 -52 -65
176 279 257 410 284 458 18 31 35 57 37 57 3 0 -9 -26 -27 -57z m2721 -68 c13
-14 21 -25 18 -25 -2 0 -15 11 -28 25 -13 14 -21 25 -18 25 2 0 15 -11 28 -25z
m-1364 -367 c-50 -105 -96 -193 -101 -195 -6 -2 -30 15 -55 38 l-45 41 47 -37
47 -37 96 191 c52 105 97 191 99 191 3 0 -37 -86 -88 -192z m1707 54 c31 -25
57 -47 57 -49 0 -2 -29 17 -64 42 l-64 45 -23 -28 c-13 -15 -32 -39 -42 -52
-18 -25 -18 -25 -1 5 40 68 59 93 69 87 5 -3 36 -26 68 -50z m-163 -92 c-6
-11 -13 -20 -16 -20 -2 0 0 9 6 20 6 11 13 20 16 20 2 0 0 -9 -6 -20z m-85
-140 c-9 -16 -18 -30 -21 -30 -2 0 2 14 11 30 9 17 18 30 21 30 2 0 -2 -13
-11 -30z m-40 -70 c-9 -16 -18 -30 -21 -30 -2 0 2 14 11 30 9 17 18 30 21 30
2 0 -2 -13 -11 -30z m-35 -60 c-6 -11 -13 -20 -16 -20 -2 0 0 9 6 20 6 11 13
20 16 20 2 0 0 -9 -6 -20z m-490 -835 c-17 -30 -33 -55 -36 -55 -2 0 11 29 28
65 18 36 34 61 36 56 2 -6 -11 -36 -28 -66z m285 -125 c250 -186 447 -325 687
-485 l178 -118 -22 -36 c-238 -396 -475 -743 -616 -901 l-49 -54 -517 413
c-284 227 -516 415 -516 418 0 2 43 59 96 126 114 146 288 406 409 612 121
206 114 197 128 188 7 -4 107 -77 222 -163z m-1857 95 c-13 -19 -27 -35 -32
-35 -8 0 0 14 33 53 23 28 23 19 -1 -18z m1512 -75 c-6 -11 -13 -20 -16 -20
-2 0 0 9 6 20 6 11 13 20 16 20 2 0 0 -9 -6 -20z m420 -46 c0 -3 -13 4 -30 16
-16 12 -30 24 -30 26 0 3 14 -4 30 -16 17 -12 30 -24 30 -26z m108 -78 c3 -5
-16 6 -42 24 -26 19 -50 39 -54 44 -3 5 16 -6 42 -24 26 -19 50 -39 54 -44z
m-618 -26 c-6 -11 -13 -20 -16 -20 -2 0 0 9 6 20 6 11 13 20 16 20 2 0 0 -9
-6 -20z m750 -68 c8 -8 -13 4 -48 28 -35 24 -66 48 -70 54 -7 12 95 -59 118
-82z m-776 26 c-23 -40 -168 -255 -177 -263 -14 -13 10 25 101 163 41 61 77
112 79 112 2 0 1 -6 -3 -12z m856 -84 c0 -3 -13 4 -30 16 -16 12 -30 24 -30
26 0 3 14 -4 30 -16 17 -12 30 -24 30 -26z m100 -70 c0 -3 -20 9 -45 26 -25
17 -45 33 -45 36 0 3 20 -9 45 -26 25 -17 45 -33 45 -36z m529 -11 c-12 -21
-27 -42 -32 -48 -11 -11 9 29 31 63 24 37 25 25 1 -15z m-51 -85 c-8 -13 -32
-53 -53 -90 -22 -38 -43 -68 -48 -68 -4 0 5 19 21 43 15 23 41 63 56 90 15 26
29 47 33 47 3 0 -1 -10 -9 -22z m-1818 -291 c0 -2 -10 -12 -22 -23 l-23 -19
19 23 c18 21 26 27 26 19z"/>
</g>
</svg>
