<?xml version="1.0" standalone="no"?>
<!DOCTYPE svg PUBLIC "-//W3C//DTD SVG 1.0//EN" "http://www.w3.org/TR/2001/REC-SVG-20010904/DTD/svg10.dtd">
<svg xmlns="http://www.w3.org/2000/svg" xmlns:xlink="http://www.w3.org/1999/xlink" id="body_1" width="1301" height="1301">

<defs>
    <clipPath  id="1">

    <path id=""  clip-rule="evenodd" transform="matrix(1 0 0 1 0 0)"  d="M0 976L0 -0.34698486L0 -0.34698486L976.349 -0.34698486L976.349 -0.34698486L976.349 976L976.349 976L0 976z" />    </clipPath>
    <clipPath  id="2">

    <path id=""  clip-rule="evenodd" transform="matrix(1 0 0 1 0 0)"  d="M0 -0.34698486L976.349 -0.34698486L976.349 -0.34698486L976.349 976L976.349 976L0 976z" />    </clipPath>
</defs>

<g transform="matrix(1.3333 0 0 1.3333 0 0)">
	<g clip-path="url(#1)" >
		<g clip-path="url(#2)" >
    <path id=""  transform="matrix(1 0 0 -1 0 976)"  d="M958.2006 956.3987L735.9166 957.07166L735.9166 957.07166L732.54865 941.5797C 732.54865 941.5797 785.0886 915.98267 799.9076 902.51166C 814.7266 889.0397 817.3726 886.4737 817.3726 886.4737L817.3726 886.4737L746.85364 817.35266C 773.2826 795.9527 796.9806 771.9377 818.3106 745.6527L818.3106 745.6527L885.45264 815.61865L885.45264 815.61865L944.72864 736.13464L944.72864 736.13464L958.2006 736.13464z" stroke="none" fill="#010101" fill-rule="nonzero" />
    <path id=""  transform="matrix(1 0 0 -1 0 976)"  d="M892.3446 762.1951L841.8956 712.2111L841.8956 712.2111L841.8756 712.1981C 882.2476 648.5911 905.9766 573.3241 906.8026 492.45013C 909.1646 261.24814 723.6526 71.907104 492.4506 69.545105C 261.2486 67.183105 71.90759 252.69513 69.54559 483.89713C 67.18359 715.0991 252.69562 904.4401 483.8976 906.80115C 568.7166 907.66815 647.8836 883.2251 714.2696 840.54114L714.2696 840.54114L766.05164 889.6721C 685.0086 945.9981 588.8926 976.3471 488.2616 976.3471C 486.5776 976.3471 484.87662 976.34015 483.1856 976.32117C 352.7976 974.98914 230.73163 922.9611 139.47461 829.8211C 48.218628 736.67914 -1.3063965 613.57715 0.026611328 483.18613C 1.3486328 353.6801 52.779602 232.20514 144.8446 141.13013C 236.84259 50.120117 358.7406 0.00012207031 488.0856 0.00012207031C 489.7696 0.00012207031 491.4706 0.008117676 493.1606 0.025146484C 762.3286 2.776123 979.0746 223.9931 976.3236 493.15814C 975.3286 590.5501 945.9876 683.3991 892.3446 762.1951" stroke="none" fill="#010101" fill-rule="nonzero" />
    <path id=""  transform="matrix(1 0 0 -1 0 976)"  d="M225.868 522.5886L243.105 522.5886L243.105 522.5886L214.28 469.28763L214.28 469.28763L185.066 522.57764L185.066 522.57764L206.01599 522.5886L206.01599 522.5886L206.011 535.8476L206.011 535.8476L119.417 535.8476L119.417 535.8476L119.399994 522.57764L119.399994 522.57764L139.219 522.57764L139.219 522.57764L179.492 449.40863L179.492 449.40863L226.125 449.37262L226.125 449.37262L265.71 522.5886L265.71 522.5886L285.552 522.57764L285.552 522.57764L285.552 535.8476L285.552 535.8476L225.868 535.8476z" stroke="none" fill="#010101" fill-rule="nonzero" />
    <path id=""  transform="matrix(1 0 0 -1 0 976)"  d="M518.6219 462.7966L500.1609 462.7966L500.1609 462.7966L500.1609 522.5976L500.1609 522.5976L520.0719 522.5976L520.0719 522.5976L520.0719 535.8366L520.0719 535.8366L440.1239 535.8476L440.1239 535.8476L440.13287 522.5976L440.13287 522.5976L460.25388 522.5976L460.25388 522.5976L460.27988 462.7776L460.27988 462.7776L440.12488 462.7776L440.12488 462.7776L440.12488 449.3726L440.12488 449.3726L560.1329 449.3826L560.1329 449.3826L560.1329 489.4256L560.1329 489.4256L546.9439 489.4256C 546.9439 474.0936 535.72986 462.7966 518.6219 462.7966" stroke="none" fill="#010101" fill-rule="nonzero" />
    <path id=""  transform="matrix(1 0 0 -1 0 976)"  d="M356.6752 537.5758C 316.9772 537.5758 295.8922 517.7718 295.8922 492.9218C 295.8922 467.7268 316.1942 447.64282 356.9042 447.64282C 397.6012 447.64282 417.6872 467.7268 417.6872 492.9218C 417.6872 517.7718 396.3802 537.5758 356.6752 537.5758M356.2352 461.2448C 341.7382 461.5078 335.3652 477.52982 335.6432 493.4508C 335.9312 509.9388 343.8212 524.31683 357.40118 524.0808C 370.9812 523.84283 378.1522 509.18982 377.8602 492.7098C 377.5842 477.16083 371.1662 460.97382 356.2352 461.2448" stroke="none" fill="#010101" fill-rule="nonzero" />
    <path id=""  transform="matrix(1 0 0 -1 0 976)"  d="M662.8129 522.5886L680.05194 522.5886L680.05194 522.5886L651.2279 469.28763L651.2279 469.28763L622.0139 522.57764L622.0139 522.57764L642.9639 522.5886L642.9639 522.5886L642.9589 535.8476L642.9589 535.8476L556.36395 535.8476L556.36395 535.8476L556.34595 522.57764L556.34595 522.57764L576.1659 522.57764L576.1659 522.57764L616.4379 449.40863L616.4379 449.40863L663.06995 449.37262L663.06995 449.37262L702.65594 522.5886L702.65594 522.5886L722.4979 522.57764L722.4979 522.57764L722.4979 535.8476L722.4979 535.8476L662.8129 535.8476z" stroke="none" fill="#010101" fill-rule="nonzero" />
    <path id=""  transform="matrix(1 0 0 -1 0 976)"  d="M793.39984 537.9724C 753.37585 537.9724 732.1199 518.00543 732.1199 492.95142C 732.1199 467.55142 752.5879 447.3024 793.63086 447.3024C 834.6639 447.3024 854.9139 467.55142 854.9139 492.95142C 854.9139 518.00543 833.43085 537.9724 793.39984 537.9724M792.9559 461.0154C 778.3409 461.28043 771.9169 477.4334 772.19586 493.4854C 772.4869 510.1094 780.44086 524.60443 794.1319 524.3664C 807.8249 524.1254 815.0519 509.35342 814.7569 492.73743C 814.47986 477.0614 808.01086 460.74142 792.9559 461.0154" stroke="none" fill="#010101" fill-rule="nonzero" />
		</g>
	</g>
</g>
</svg>