<svg xmlns="http://www.w3.org/2000/svg" width="730pt" height="580pt" viewBox="0 0 730 580"><path d="m 293.01001,1.1199625 c 80.02,-2.82 160.12,-0.02 240,5.11 8.41,0.73 16.93,0.67 25.21,2.44 4.48,1.08 9.32,2.7900005 11.94,6.8600005 2.39,4.43 2.44,9.6 3.06,14.48 1.9,23.97 2.46,48.04 4.25,72.009997 -3.46,0.42 -6.92,-0.11 -10.38,-0.22 -61.61,-3.189997 -123.27,-5.839997 -184.98,-5.919997 -31.96,0.09 -63.96,-0.22 -95.89,1.33 -7.74,1.14 -16.5,3.729997 -20.97,10.629997 24.16,4.29 48.27,8.92 72.42,13.29 80.04,14.98 160.14,29.63 240.18,44.59 -0.07,15.18 -0.04,30.36 -0.01,45.54 -45.01,-7.45 -89.94,-15.49 -134.92,-23.18 -96.77,-16.68 -193.51,-33.59 -290.31,-50.11 0.19,-16.85 0.91,-33.69 1.26,-50.549997 0.61,-13.35 0.23,-26.88 3.25,-39.99 2.03,-9.25 5.79,-18.55 12.8,-25.16 12.1,-11.98 29.6,-15.3500005 45.89,-17.0400005 25.67,-2.38 51.45,-3.16 77.2,-4.11 z m -140.86,159.0199975 c 138.64,25.58 277.23,51.59 415.85,77.32 3.03,0.74 6.27,0.8 9.18,1.91 l 0.35,0.8 c -0.76,22.74 -1.2,45.5 -2.02,68.24 -0.53,14.03 -2.01,28.71 -9.23,41.07 -7.74,12.78 -22.16,19.85 -36.43,22.52 -21.03,3.95 -42.51,4.21 -63.81,5.38 -91.65,4.16 -183.49,1.86 -274.99,-4.44 -7.31,-0.51 -14.75,-0.64 -21.85,-2.67 -3.68,-1.16 -7.48,-3.03 -9.56,-6.43 -2.23,-4.46 -2.37,-9.55 -2.92,-14.41 -1.96,-26.53 -3,-53.11 -4.39,-79.67 47.2,3 94.48,4.68 141.77,5.73 45.66,0.74 91.32,0.73 136.98,1.18 9.85,0.41 20.5,-1.47 27.97,-8.39 1.09,-1.25 2.86,-2.41 2.68,-4.28 -20.58,-3.09 -41.04,-6.93 -61.58,-10.31 -82.64,-14.13 -165.32,-28.13 -247.95,-42.34 -0.1,-17.07 0.02,-34.14 -0.05,-51.21 z" fill="#19191b" /><path d="m 519.91881,499.19361 v 31.61021 H 419.37694 v -8.90429 c 0,-13.80165 2.21947,-22.92853 18.42158,-22.92853 h 82.12029 z m -88.3348,-19.58943 c -26.41166,0 -38.61873,14.02425 -38.61873,36.73018 v 63.66565 h 26.41166 v -29.38414 h 100.54187 v 29.16153 h 26.41166 V 479.60418 Z m 147.37263,0 v 19.58943 h 62.14511 v 80.58379 h 26.41166 v -80.58379 h 62.14508 v -19.58943 z m -355.55863,61.66217 c 0,14.02426 2.88531,19.14422 18.42159,19.14422 h 110.30749 v 19.58944 h -116.522 c -26.41166,0 -38.84068,-12.0208 -38.84068,-34.50411 v -65.89172 h 155.14073 v 19.58943 H 223.17607 v 19.58942 h 123.40234 v 19.25552 H 223.17607 v 3.33911 z M 34.299376,514.5535 c -8.212029,-0.66782 -9.543709,-3.56173 -9.543709,-8.45907 0,-4.45214 2.441415,-7.12343 8.655922,-7.12343 H 155.26036 V 479.60418 H 30.304336 c -17.755738,0 -29.96280878,6.90081 -29.96280878,26.71285 0,19.81204 9.09981578,26.71286 29.51891478,28.49373 l 98.766308,8.23646 c 7.54618,0.66782 9.76563,3.1165 9.76563,8.68168 0,5.11996 -2.21945,8.45907 -9.0998,8.45907 H 5.224355 V 579.7774 H 131.2901 c 21.75078,0 31.29449,-8.68168 31.29449,-29.16153 0,-18.69901 -8.65592,-26.26766 -29.74086,-28.04852 z" fill="#19191b" /></svg>
